<svg width="178" height="25" viewBox="0 0 178 25" fill="none" xmlns="http://www.w3.org/2000/svg">
<path d="M16.2125 19.584H8.40332L7.03955 24H0.951294L9.62097 0.361328H14.9786L23.7133 24H17.5925L16.2125 19.584ZM9.76709 15.1842H14.8488L12.2998 6.98535L9.76709 15.1842Z" fill="#8794BA"/>
<path d="M45.1926 24H39.5265L31.149 9.29077V24H25.4504V0.361328H31.149L39.5103 15.0706V0.361328H45.1926V24Z" fill="#8794BA"/>
<path d="M62.5157 19.584H54.7065L53.3428 24H47.2545L55.9242 0.361328H61.2819L70.0165 24H63.8958L62.5157 19.584ZM56.0703 15.1842H61.152L58.603 6.98535L56.0703 15.1842Z" fill="#8794BA"/>
<path d="M77.4523 19.6165H87.3721V24H71.7537V0.361328H77.4523V19.6165Z" fill="#8794BA"/>
<path d="M93.8824 10.6221L98.2335 0.361328H104.387L96.7723 15.5089V24H90.9926V15.5089L83.3944 0.361328H89.5151L93.8824 10.6221Z" fill="#8794BA"/>
<path d="M124.957 4.76111H117.862V24H112.163V4.76111H105.198V0.361328H124.957V4.76111Z" fill="#8794BA"/>
<path d="M133.448 24H127.766V0.361328H133.448V24Z" fill="#8794BA"/>
<path d="M156.535 15.996C156.459 17.6412 156.015 19.0969 155.203 20.3633C154.392 21.6188 153.25 22.5929 151.778 23.2856C150.317 23.9784 148.644 24.3247 146.761 24.3247C143.655 24.3247 141.208 23.3127 139.423 21.2887C137.637 19.2647 136.744 16.4073 136.744 12.7164V11.5475C136.744 9.23124 137.144 7.20723 137.945 5.47546C138.757 3.73287 139.92 2.39075 141.436 1.4491C142.951 0.496623 144.705 0.0203857 146.696 0.0203857C149.564 0.0203857 151.87 0.778036 153.612 2.29333C155.355 3.79781 156.345 5.87594 156.583 8.52771H150.901C150.858 7.08818 150.495 6.05452 149.813 5.42676C149.131 4.79899 148.092 4.48511 146.696 4.48511C145.278 4.48511 144.239 5.01546 143.579 6.07617C142.919 7.13688 142.572 8.83077 142.54 11.1578V12.8301C142.54 15.352 142.854 17.1541 143.481 18.2365C144.12 19.3188 145.213 19.86 146.761 19.86C148.071 19.86 149.072 19.5515 149.765 18.9346C150.457 18.3176 150.825 17.3381 150.869 15.996H156.535Z" fill="#8794BA"/>
<path d="M171.422 17.7169C171.422 16.8835 171.125 16.2341 170.53 15.7687C169.945 15.3033 168.911 14.8216 167.429 14.3237C165.946 13.8258 164.734 13.3442 163.792 12.8788C160.729 11.3743 159.197 9.30701 159.197 6.67688C159.197 5.36723 159.576 4.21452 160.334 3.21875C161.102 2.21216 162.185 1.43286 163.581 0.880859C164.977 0.318034 166.546 0.0366211 168.289 0.0366211C169.988 0.0366211 171.509 0.339681 172.851 0.945801C174.204 1.55192 175.254 2.41781 176.001 3.54346C176.748 4.65828 177.121 5.93547 177.121 7.375H171.439C171.439 6.4117 171.141 5.66488 170.546 5.13452C169.961 4.60417 169.166 4.33899 168.159 4.33899C167.142 4.33899 166.335 4.56628 165.74 5.02087C165.156 5.46464 164.863 6.03288 164.863 6.72559C164.863 7.33171 165.188 7.88371 165.838 8.38159C166.487 8.86865 167.629 9.37736 169.263 9.90771C170.898 10.4272 172.24 10.9901 173.29 11.5962C175.844 13.0682 177.121 15.0976 177.121 17.6844C177.121 19.7517 176.342 21.3753 174.783 22.5551C173.225 23.7348 171.087 24.3247 168.37 24.3247C166.454 24.3247 164.717 23.9838 163.159 23.3019C161.611 22.6092 160.442 21.6675 159.652 20.4769C158.873 19.2755 158.483 17.8955 158.483 16.3369H164.198C164.198 17.6033 164.522 18.5395 165.172 19.1456C165.832 19.7409 166.898 20.0386 168.37 20.0386C169.312 20.0386 170.053 19.8383 170.594 19.4379C171.146 19.0266 171.422 18.4529 171.422 17.7169Z" fill="#8794BA"/>
</svg>
